<?xml version="1.0" encoding="UTF-8" standalone="no"?>
<!-- Uploaded to: SVG Repo, www.svgrepo.com, Generator: SVG Repo Mixer Tools -->

<svg
   fill="#000000"
   width="800px"
   height="800px"
   viewBox="0 0 32 32"
   enable-background="new 0 0 32 32"
   version="1.1"
   xml:space="preserve"
   id="svg13"
   sodipodi:docname="load.svg"
   inkscape:version="1.3.2 (091e20ef0f, 2023-11-25)"
   xmlns:inkscape="http://www.inkscape.org/namespaces/inkscape"
   xmlns:sodipodi="http://sodipodi.sourceforge.net/DTD/sodipodi-0.dtd"
   xmlns:xlink="http://www.w3.org/1999/xlink"
   xmlns="http://www.w3.org/2000/svg"
   xmlns:svg="http://www.w3.org/2000/svg"><defs
   id="defs13"><linearGradient
     id="linearGradient15"
     inkscape:collect="always"><stop
       style="stop-color:#000000;stop-opacity:1;"
       offset="0"
       id="stop15" /><stop
       style="stop-color:#000000;stop-opacity:0;"
       offset="1"
       id="stop16" /></linearGradient><linearGradient
     id="linearGradient13"
     inkscape:collect="always"><stop
       style="stop-color:#000000;stop-opacity:1;"
       offset="0"
       id="stop13" /><stop
       style="stop-color:#000000;stop-opacity:0;"
       offset="1"
       id="stop14" /></linearGradient><linearGradient
     inkscape:collect="always"
     xlink:href="#linearGradient13"
     id="linearGradient14"
     x1="3"
     y1="16"
     x2="29"
     y2="16"
     gradientUnits="userSpaceOnUse" /><linearGradient
     inkscape:collect="always"
     xlink:href="#linearGradient15"
     id="linearGradient16"
     x1="3"
     y1="16"
     x2="29"
     y2="16"
     gradientUnits="userSpaceOnUse" /></defs><sodipodi:namedview
   id="namedview13"
   pagecolor="#ffffff"
   bordercolor="#000000"
   borderopacity="0.25"
   inkscape:showpageshadow="2"
   inkscape:pageopacity="0.0"
   inkscape:pagecheckerboard="0"
   inkscape:deskcolor="#d1d1d1"
   inkscape:zoom="1.02625"
   inkscape:cx="400.48721"
   inkscape:cy="400"
   inkscape:window-width="1920"
   inkscape:window-height="1017"
   inkscape:window-x="-8"
   inkscape:window-y="-8"
   inkscape:window-maximized="1"
   inkscape:current-layer="svg13" />

<g
   id="play" />

<g
   id="stop" />

<g
   id="pause" />

<g
   id="replay" />

<g
   id="next" />

<g
   id="Layer_8" />

<g
   id="search" />

<g
   id="list"
   style="fill:#888888;fill-opacity:1;stroke:none;stroke-opacity:1">

<g
   id="g13"
   style="fill:#888888;fill-opacity:1;stroke:none;stroke-opacity:1">

<g
   id="g2"
   style="fill:#888888;fill-opacity:1;stroke:none;stroke-opacity:1">

<path
   d="M28,5c0-0.552-0.447-1-1-1H13c-0.552,0-1,0.448-1,1v2c0,0.552,0.448,1,1,1h14c0.553,0,1-0.448,1-1V5z"
   id="path1"
   style="fill:#888888;fill-opacity:1;stroke:none;stroke-opacity:1" />

<path
   d="M27,9H13c-1.103,0-2-0.897-2-2V5c0-1.103,0.897-2,2-2h14c1.103,0,2,0.897,2,2v2C29,8.103,28.103,9,27,9z M13,5v2h14V5H13     z"
   id="path2"
   style="fill:#888888;fill-opacity:1;stroke:none;stroke-opacity:1" />

</g>

<g
   id="g4"
   style="fill:#888888;fill-opacity:1;stroke:none;stroke-opacity:1">

<path
   d="M28,15c0-0.552-0.447-1-1-1H13c-0.552,0-1,0.448-1,1v2c0,0.552,0.448,1,1,1h14c0.553,0,1-0.448,1-1V15z"
   id="path3"
   style="fill:#888888;fill-opacity:1;stroke:none;stroke-opacity:1" />

<path
   d="M27,19H13c-1.103,0-2-0.897-2-2v-2c0-1.103,0.897-2,2-2h14c1.103,0,2,0.897,2,2v2C29,18.103,28.103,19,27,19z M13,15v2     h14v-2H13z"
   id="path4"
   style="fill:#888888;fill-opacity:1;stroke:none;stroke-opacity:1" />

</g>

<g
   id="g6"
   style="fill:#888888;fill-opacity:1;stroke:none;stroke-opacity:1">

<path
   d="M28,25c0-0.552-0.447-1-1-1H13c-0.552,0-1,0.448-1,1v2c0,0.552,0.448,1,1,1h14c0.553,0,1-0.448,1-1V25z"
   id="path5"
   style="fill:#888888;fill-opacity:1;stroke:none;stroke-opacity:1" />

<path
   d="M27,29H13c-1.103,0-2-0.897-2-2v-2c0-1.103,0.897-2,2-2h14c1.103,0,2,0.897,2,2v2C29,28.103,28.103,29,27,29z M13,25v2     h14v-2H13z"
   id="path6"
   style="fill:#888888;fill-opacity:1;stroke:none;stroke-opacity:1" />

</g>

<g
   id="g8"
   style="fill:#888888;fill-opacity:1;stroke:none;stroke-opacity:1">

<path
   d="M8,5c0-0.552-0.448-1-1-1H5C4.448,4,4,4.448,4,5v2c0,0.552,0.448,1,1,1h2c0.552,0,1-0.448,1-1V5z"
   id="path7"
   style="fill:#888888;fill-opacity:1;stroke:none;stroke-opacity:1" />

<path
   d="M7,9H5C3.897,9,3,8.103,3,7V5c0-1.103,0.897-2,2-2h2c1.103,0,2,0.897,2,2v2C9,8.103,8.103,9,7,9z M5,5v2h2.001L7,5H5z"
   id="path8"
   style="fill:#888888;fill-opacity:1;stroke:none;stroke-opacity:1" />

</g>

<g
   id="g10"
   style="fill:#888888;fill-opacity:1;stroke:none;stroke-opacity:1">

<path
   d="M8,15c0-0.552-0.448-1-1-1H5c-0.552,0-1,0.448-1,1v2c0,0.552,0.448,1,1,1h2c0.552,0,1-0.448,1-1V15z"
   id="path9"
   style="fill:#888888;fill-opacity:1;stroke:none;stroke-opacity:1" />

<path
   d="M7,19H5c-1.103,0-2-0.897-2-2v-2c0-1.103,0.897-2,2-2h2c1.103,0,2,0.897,2,2v2C9,18.103,8.103,19,7,19z M5,15v2h2.001     L7,15H5z"
   id="path10"
   style="fill:#888888;fill-opacity:1;stroke:none;stroke-opacity:1" />

</g>

<g
   id="g12"
   style="fill:#888888;fill-opacity:1;stroke:none;stroke-opacity:1">

<path
   d="M8,25c0-0.552-0.448-1-1-1H5c-0.552,0-1,0.448-1,1v2c0,0.552,0.448,1,1,1h2c0.552,0,1-0.448,1-1V25z"
   id="path11"
   style="fill:#888888;fill-opacity:1;stroke:none;stroke-opacity:1" />

<path
   d="M7,29H5c-1.103,0-2-0.897-2-2v-2c0-1.103,0.897-2,2-2h2c1.103,0,2,0.897,2,2v2C9,28.103,8.103,29,7,29z M5,25v2h2.001     L7,25H5z"
   id="path12"
   style="fill:#888888;fill-opacity:1;stroke:none;stroke-opacity:1" />

</g>

</g>

</g>

<g
   id="love" />

<g
   id="menu" />

<g
   id="add" />

<g
   id="headset" />

<g
   id="random" />

<g
   id="music" />

<g
   id="setting" />

<g
   id="Layer_17" />

<g
   id="Layer_18" />

<g
   id="Layer_19" />

<g
   id="Layer_20" />

<g
   id="Layer_21" />

<g
   id="Layer_22" />

<g
   id="Layer_23" />

<g
   id="Layer_24" />

<g
   id="Layer_25" />

<g
   id="Layer_26" />

</svg>
